<?xml version="1.0" encoding="UTF-8"?>
<svg xmlns="http://www.w3.org/2000/svg" xmlns:xlink="http://www.w3.org/1999/xlink" width="32px" height="32px" viewBox="0 0 32 32" version="1.1">
<g id="surface1">
<path style=" stroke:none;fill-rule:evenodd;fill:rgb(11.764706%,43.529412%,21.176471%);fill-opacity:1;" d="M 15.816406 2.335938 C 15.109375 2.453125 14.476562 2.863281 14.074219 3.464844 C 14.003906 3.570312 11.871094 7.46875 11.480469 8.207031 C 11.441406 8.28125 11.402344 8.34375 11.398438 8.351562 C 11.390625 8.359375 11.382812 8.371094 11.382812 8.378906 C 11.382812 8.386719 12.007812 8.390625 12.769531 8.390625 L 14.152344 8.390625 L 14.101562 8.535156 C 13.945312 8.96875 12.601562 12.660156 11.226562 16.433594 C 9.3125 21.679688 9.527344 21.082031 9.515625 21.234375 C 9.472656 21.875 10.117188 22.351562 10.691406 22.105469 C 10.765625 22.074219 14.003906 19.9375 14.039062 19.894531 C 14.042969 19.890625 14.015625 19.90625 13.980469 19.925781 C 13.941406 19.945312 13.164062 20.390625 12.253906 20.910156 C 10.398438 21.964844 10.464844 21.933594 10.25 21.882812 C 9.839844 21.789062 9.675781 21.378906 9.882812 20.953125 C 11.722656 17.152344 15.367188 9.707031 15.425781 9.625 C 15.835938 9.082031 16.671875 9.113281 17.035156 9.6875 C 17.164062 9.894531 22.605469 21.097656 22.621094 21.195312 C 22.703125 21.621094 22.257812 22.015625 21.863281 21.863281 C 21.824219 21.847656 21.058594 21.417969 20.160156 20.90625 C 18.371094 19.890625 18.363281 19.882812 18.375 19.894531 C 18.402344 19.929688 21.640625 22.070312 21.703125 22.097656 C 22.402344 22.414062 23.109375 21.707031 22.839844 20.960938 C 22.8125 20.882812 22.078125 18.875 21.214844 16.503906 C 20.347656 14.132812 19.347656 11.378906 18.984375 10.382812 C 18.625 9.390625 18.316406 8.539062 18.300781 8.496094 C 18.285156 8.453125 18.269531 8.410156 18.269531 8.402344 C 18.269531 8.394531 18.820312 8.390625 19.65625 8.394531 L 21.042969 8.398438 L 21.015625 8.355469 C 21 8.328125 20.953125 8.246094 20.914062 8.167969 C 20.832031 8.015625 18.746094 4.175781 18.539062 3.804688 C 18.089844 2.988281 17.511719 2.53125 16.714844 2.359375 C 16.519531 2.316406 16.015625 2.304688 15.816406 2.335938 M 15.957031 20.507812 C 15.433594 20.574219 15.199219 20.675781 14.433594 21.167969 C 14.277344 21.265625 13.613281 21.691406 12.960938 22.109375 C 11.804688 22.847656 11.265625 23.195312 11.253906 23.207031 C 11.25 23.207031 13.480469 23.210938 16.207031 23.210938 L 21.167969 23.210938 L 20.960938 23.074219 C 20.847656 23 20.304688 22.652344 19.753906 22.300781 C 19.203125 21.945312 18.492188 21.492188 18.179688 21.292969 C 17.242188 20.691406 17.125 20.632812 16.667969 20.539062 C 16.527344 20.511719 16.082031 20.492188 15.957031 20.507812 "/>
<path style=" stroke:none;fill-rule:evenodd;fill:rgb(52.941179%,67.058825%,20.392157%);fill-opacity:1;" d="M 11.371094 8.402344 C 11.375 8.425781 11.351562 8.480469 11.335938 8.480469 C 11.328125 8.480469 11.328125 8.484375 11.332031 8.492188 C 11.335938 8.5 11.332031 8.511719 11.320312 8.519531 C 11.296875 8.535156 0.585938 28.210938 0.527344 28.347656 C 0.140625 29.257812 0.808594 30.300781 1.785156 30.308594 C 2.101562 30.3125 1.722656 30.460938 8.058594 27.867188 C 11.734375 26.363281 13.992188 25.445312 14.15625 25.394531 C 15.613281 24.914062 17.210938 24.960938 18.632812 25.527344 C 18.730469 25.566406 21.355469 26.640625 24.464844 27.914062 C 30.394531 30.339844 30.242188 30.277344 30.449219 30.304688 C 31.53125 30.449219 32.34375 29.253906 31.84375 28.253906 C 31.738281 28.039062 21.113281 8.53125 21.101562 8.527344 C 21.09375 8.523438 21.089844 8.515625 21.09375 8.507812 C 21.101562 8.5 21.097656 8.492188 21.085938 8.492188 C 21.078125 8.492188 21.074219 8.488281 21.078125 8.480469 C 21.082031 8.472656 21.078125 8.464844 21.0625 8.457031 C 21.050781 8.453125 21.042969 8.445312 21.046875 8.441406 C 21.054688 8.433594 21.050781 8.421875 21.042969 8.410156 C 21.023438 8.386719 18.269531 8.378906 18.269531 8.402344 C 18.269531 8.410156 18.285156 8.453125 18.300781 8.496094 C 18.316406 8.539062 18.625 9.390625 18.984375 10.382812 C 19.347656 11.378906 20.347656 14.132812 21.214844 16.503906 C 22.078125 18.875 22.8125 20.882812 22.839844 20.960938 C 23.109375 21.707031 22.402344 22.414062 21.703125 22.097656 C 21.660156 22.082031 20.914062 21.589844 20.046875 21.011719 C 19.179688 20.433594 18.414062 19.925781 18.34375 19.882812 C 17.230469 19.183594 15.726562 19.09375 14.496094 19.652344 C 14.21875 19.78125 14.183594 19.804688 12.402344 20.992188 C 11.441406 21.628906 10.75 22.082031 10.691406 22.105469 C 10.117188 22.351562 9.472656 21.875 9.515625 21.234375 C 9.527344 21.082031 9.3125 21.679688 11.226562 16.433594 C 12.601562 12.660156 13.945312 8.96875 14.101562 8.535156 L 14.152344 8.390625 L 12.761719 8.390625 C 11.996094 8.390625 11.371094 8.394531 11.371094 8.402344 M 16.667969 20.539062 C 17.125 20.632812 17.242188 20.691406 18.179688 21.292969 C 18.492188 21.492188 19.203125 21.945312 19.753906 22.300781 C 20.304688 22.652344 20.847656 23 20.960938 23.074219 L 21.167969 23.210938 L 16.207031 23.210938 C 13.480469 23.210938 11.25 23.207031 11.253906 23.207031 C 11.265625 23.195312 11.804688 22.847656 12.960938 22.109375 C 13.613281 21.691406 14.277344 21.265625 14.433594 21.167969 C 15.199219 20.675781 15.433594 20.574219 15.957031 20.507812 C 16.082031 20.492188 16.527344 20.511719 16.667969 20.539062 "/>
</g>
</svg>
